<svg width="219" height="52" viewBox="0 0 219 52" fill="none" xmlns="http://www.w3.org/2000/svg">
<g filter="url(#filter0_d_0_727)">
<g filter="url(#filter1_d_0_727)">
<g filter="url(#filter2_d_0_727)">
<g filter="url(#filter3_b_0_727)">
<rect x="4" width="211" height="44" rx="22" fill="white" fill-opacity="0.09"/>
</g>
<rect x="4.25" y="0.25" width="210.5" height="43.5" rx="21.75" stroke="white" stroke-width="0.5"/>
</g>
</g>
</g>
<path d="M66.5772 19.36C66.3492 18.94 66.0192 18.622 65.5872 18.406C65.1672 18.178 64.6692 18.064 64.0932 18.064C63.0972 18.064 62.2992 18.394 61.6992 19.054C61.0992 19.702 60.7992 20.572 60.7992 21.664C60.7992 22.828 61.1112 23.74 61.7352 24.4C62.3712 25.048 63.2412 25.372 64.3452 25.372C65.1012 25.372 65.7372 25.18 66.2532 24.796C66.7812 24.412 67.1652 23.86 67.4052 23.14H63.4992V20.872H70.1952V23.734C69.9672 24.502 69.5772 25.216 69.0252 25.876C68.4852 26.536 67.7952 27.07 66.9552 27.478C66.1152 27.886 65.1672 28.09 64.1112 28.09C62.8632 28.09 61.7472 27.82 60.7632 27.28C59.7912 26.728 59.0292 25.966 58.4772 24.994C57.9372 24.022 57.6672 22.912 57.6672 21.664C57.6672 20.416 57.9372 19.306 58.4772 18.334C59.0292 17.35 59.7912 16.588 60.7632 16.048C61.7352 15.496 62.8452 15.22 64.0932 15.22C65.6052 15.22 66.8772 15.586 67.9092 16.318C68.9532 17.05 69.6432 18.064 69.9792 19.36H66.5772ZM81.3682 22.816C81.3682 23.104 81.3502 23.404 81.3142 23.716H74.3482C74.3962 24.34 74.5942 24.82 74.9422 25.156C75.3022 25.48 75.7402 25.642 76.2562 25.642C77.0242 25.642 77.5582 25.318 77.8582 24.67H81.1342C80.9662 25.33 80.6602 25.924 80.2162 26.452C79.7842 26.98 79.2382 27.394 78.5782 27.694C77.9182 27.994 77.1802 28.144 76.3642 28.144C75.3802 28.144 74.5042 27.934 73.7362 27.514C72.9682 27.094 72.3682 26.494 71.9362 25.714C71.5042 24.934 71.2882 24.022 71.2882 22.978C71.2882 21.934 71.4982 21.022 71.9182 20.242C72.3502 19.462 72.9502 18.862 73.7182 18.442C74.4862 18.022 75.3682 17.812 76.3642 17.812C77.3362 17.812 78.2002 18.016 78.9562 18.424C79.7122 18.832 80.3002 19.414 80.7202 20.17C81.1522 20.926 81.3682 21.808 81.3682 22.816ZM78.2182 22.006C78.2182 21.478 78.0382 21.058 77.6782 20.746C77.3182 20.434 76.8682 20.278 76.3282 20.278C75.8122 20.278 75.3742 20.428 75.0142 20.728C74.6662 21.028 74.4502 21.454 74.3662 22.006H78.2182ZM88.59 25.39V28H87.024C85.908 28 85.038 27.73 84.414 27.19C83.79 26.638 83.478 25.744 83.478 24.508V20.512H82.254V17.956H83.478V15.508H86.556V17.956H88.572V20.512H86.556V24.544C86.556 24.844 86.628 25.06 86.772 25.192C86.916 25.324 87.156 25.39 87.492 25.39H88.59ZM98.6909 28.126C97.7669 28.126 96.9389 27.976 96.2069 27.676C95.4749 27.376 94.8869 26.932 94.4429 26.344C94.0109 25.756 93.7829 25.048 93.7589 24.22H97.0349C97.0829 24.688 97.2449 25.048 97.5209 25.3C97.7969 25.54 98.1569 25.66 98.6009 25.66C99.0569 25.66 99.4169 25.558 99.6809 25.354C99.9449 25.138 100.077 24.844 100.077 24.472C100.077 24.16 99.9689 23.902 99.7529 23.698C99.5489 23.494 99.2909 23.326 98.9789 23.194C98.6789 23.062 98.2469 22.912 97.6829 22.744C96.8669 22.492 96.2009 22.24 95.6849 21.988C95.1689 21.736 94.7249 21.364 94.3529 20.872C93.9809 20.38 93.7949 19.738 93.7949 18.946C93.7949 17.77 94.2209 16.852 95.0729 16.192C95.9249 15.52 97.0349 15.184 98.4029 15.184C99.7949 15.184 100.917 15.52 101.769 16.192C102.621 16.852 103.077 17.776 103.137 18.964H99.8069C99.7829 18.556 99.6329 18.238 99.3569 18.01C99.0809 17.77 98.7269 17.65 98.2949 17.65C97.9229 17.65 97.6229 17.752 97.3949 17.956C97.1669 18.148 97.0529 18.43 97.0529 18.802C97.0529 19.21 97.2449 19.528 97.6289 19.756C98.0129 19.984 98.6129 20.23 99.4289 20.494C100.245 20.77 100.905 21.034 101.409 21.286C101.925 21.538 102.369 21.904 102.741 22.384C103.113 22.864 103.299 23.482 103.299 24.238C103.299 24.958 103.113 25.612 102.741 26.2C102.381 26.788 101.853 27.256 101.157 27.604C100.461 27.952 99.6389 28.126 98.6909 28.126ZM110.791 25.39V28H109.225C108.109 28 107.239 27.73 106.615 27.19C105.991 26.638 105.679 25.744 105.679 24.508V20.512H104.455V17.956H105.679V15.508H108.757V17.956H110.773V20.512H108.757V24.544C108.757 24.844 108.829 25.06 108.973 25.192C109.117 25.324 109.357 25.39 109.693 25.39H110.791ZM111.894 22.96C111.894 21.928 112.086 21.022 112.47 20.242C112.866 19.462 113.4 18.862 114.072 18.442C114.744 18.022 115.494 17.812 116.322 17.812C117.03 17.812 117.648 17.956 118.176 18.244C118.716 18.532 119.13 18.91 119.418 19.378V17.956H122.496V28H119.418V26.578C119.118 27.046 118.698 27.424 118.158 27.712C117.63 28 117.012 28.144 116.304 28.144C115.488 28.144 114.744 27.934 114.072 27.514C113.4 27.082 112.866 26.476 112.47 25.696C112.086 24.904 111.894 23.992 111.894 22.96ZM119.418 22.978C119.418 22.21 119.202 21.604 118.77 21.16C118.35 20.716 117.834 20.494 117.222 20.494C116.61 20.494 116.088 20.716 115.656 21.16C115.236 21.592 115.026 22.192 115.026 22.96C115.026 23.728 115.236 24.34 115.656 24.796C116.088 25.24 116.61 25.462 117.222 25.462C117.834 25.462 118.35 25.24 118.77 24.796C119.202 24.352 119.418 23.746 119.418 22.978ZM127.8 19.63C128.16 19.078 128.61 18.646 129.15 18.334C129.69 18.01 130.29 17.848 130.95 17.848V21.106H130.104C129.336 21.106 128.76 21.274 128.376 21.61C127.992 21.934 127.8 22.51 127.8 23.338V28H124.722V17.956H127.8V19.63ZM138.02 25.39V28H136.454C135.338 28 134.468 27.73 133.844 27.19C133.22 26.638 132.908 25.744 132.908 24.508V20.512H131.684V17.956H132.908V15.508H135.986V17.956H138.002V20.512H135.986V24.544C135.986 24.844 136.058 25.06 136.202 25.192C136.346 25.324 136.586 25.39 136.922 25.39H138.02ZM149.202 22.816C149.202 23.104 149.184 23.404 149.148 23.716H142.182C142.23 24.34 142.428 24.82 142.776 25.156C143.136 25.48 143.574 25.642 144.09 25.642C144.858 25.642 145.392 25.318 145.692 24.67H148.968C148.8 25.33 148.494 25.924 148.05 26.452C147.618 26.98 147.072 27.394 146.412 27.694C145.752 27.994 145.014 28.144 144.198 28.144C143.214 28.144 142.338 27.934 141.57 27.514C140.802 27.094 140.202 26.494 139.77 25.714C139.338 24.934 139.122 24.022 139.122 22.978C139.122 21.934 139.332 21.022 139.752 20.242C140.184 19.462 140.784 18.862 141.552 18.442C142.32 18.022 143.202 17.812 144.198 17.812C145.17 17.812 146.034 18.016 146.79 18.424C147.546 18.832 148.134 19.414 148.554 20.17C148.986 20.926 149.202 21.808 149.202 22.816ZM146.052 22.006C146.052 21.478 145.872 21.058 145.512 20.746C145.152 20.434 144.702 20.278 144.162 20.278C143.646 20.278 143.208 20.428 142.848 20.728C142.5 21.028 142.284 21.454 142.2 22.006H146.052ZM150.214 22.96C150.214 21.928 150.406 21.022 150.79 20.242C151.186 19.462 151.72 18.862 152.392 18.442C153.064 18.022 153.814 17.812 154.642 17.812C155.302 17.812 155.902 17.95 156.442 18.226C156.994 18.502 157.426 18.874 157.738 19.342V14.68H160.816V28H157.738V26.56C157.45 27.04 157.036 27.424 156.496 27.712C155.968 28 155.35 28.144 154.642 28.144C153.814 28.144 153.064 27.934 152.392 27.514C151.72 27.082 151.186 26.476 150.79 25.696C150.406 24.904 150.214 23.992 150.214 22.96ZM157.738 22.978C157.738 22.21 157.522 21.604 157.09 21.16C156.67 20.716 156.154 20.494 155.542 20.494C154.93 20.494 154.408 20.716 153.976 21.16C153.556 21.592 153.346 22.192 153.346 22.96C153.346 23.728 153.556 24.34 153.976 24.796C154.408 25.24 154.93 25.462 155.542 25.462C156.154 25.462 156.67 25.24 157.09 24.796C157.522 24.352 157.738 23.746 157.738 22.978Z" fill="white"/>
<defs>
<filter id="filter0_d_0_727" x="0" y="0" width="219" height="52" filterUnits="userSpaceOnUse" color-interpolation-filters="sRGB">
<feFlood flood-opacity="0" result="BackgroundImageFix"/>
<feColorMatrix in="SourceAlpha" type="matrix" values="0 0 0 0 0 0 0 0 0 0 0 0 0 0 0 0 0 0 127 0" result="hardAlpha"/>
<feOffset dy="4"/>
<feGaussianBlur stdDeviation="2"/>
<feComposite in2="hardAlpha" operator="out"/>
<feColorMatrix type="matrix" values="0 0 0 0 0 0 0 0 0 0 0 0 0 0 0 0 0 0 0.25 0"/>
<feBlend mode="normal" in2="BackgroundImageFix" result="effect1_dropShadow_0_727"/>
<feBlend mode="normal" in="SourceGraphic" in2="effect1_dropShadow_0_727" result="shape"/>
</filter>
<filter id="filter1_d_0_727" x="0" y="0" width="219" height="52" filterUnits="userSpaceOnUse" color-interpolation-filters="sRGB">
<feFlood flood-opacity="0" result="BackgroundImageFix"/>
<feColorMatrix in="SourceAlpha" type="matrix" values="0 0 0 0 0 0 0 0 0 0 0 0 0 0 0 0 0 0 127 0" result="hardAlpha"/>
<feOffset dy="4"/>
<feGaussianBlur stdDeviation="2"/>
<feComposite in2="hardAlpha" operator="out"/>
<feColorMatrix type="matrix" values="0 0 0 0 0 0 0 0 0 0 0 0 0 0 0 0 0 0 0.25 0"/>
<feBlend mode="normal" in2="BackgroundImageFix" result="effect1_dropShadow_0_727"/>
<feBlend mode="normal" in="SourceGraphic" in2="effect1_dropShadow_0_727" result="shape"/>
</filter>
<filter id="filter2_d_0_727" x="0" y="0" width="219" height="52" filterUnits="userSpaceOnUse" color-interpolation-filters="sRGB">
<feFlood flood-opacity="0" result="BackgroundImageFix"/>
<feColorMatrix in="SourceAlpha" type="matrix" values="0 0 0 0 0 0 0 0 0 0 0 0 0 0 0 0 0 0 127 0" result="hardAlpha"/>
<feOffset dy="4"/>
<feGaussianBlur stdDeviation="2"/>
<feComposite in2="hardAlpha" operator="out"/>
<feColorMatrix type="matrix" values="0 0 0 0 0 0 0 0 0 0 0 0 0 0 0 0 0 0 0.25 0"/>
<feBlend mode="normal" in2="BackgroundImageFix" result="effect1_dropShadow_0_727"/>
<feBlend mode="normal" in="SourceGraphic" in2="effect1_dropShadow_0_727" result="shape"/>
</filter>
<filter id="filter3_b_0_727" x="-10" y="-14" width="239" height="72" filterUnits="userSpaceOnUse" color-interpolation-filters="sRGB">
<feFlood flood-opacity="0" result="BackgroundImageFix"/>
<feGaussianBlur in="BackgroundImageFix" stdDeviation="7"/>
<feComposite in2="SourceAlpha" operator="in" result="effect1_backgroundBlur_0_727"/>
<feBlend mode="normal" in="SourceGraphic" in2="effect1_backgroundBlur_0_727" result="shape"/>
</filter>
</defs>
</svg>
